<?xml version="1.0" encoding="UTF-8" standalone="no"?>
<!-- Created with Inkscape (http://www.inkscape.org/) -->

<svg
   width="160.75687mm"
   height="52.474468mm"
   viewBox="0 0 160.75687 52.474468"
   version="1.1"
   id="svg18796"
   inkscape:version="1.3 (1:1.3+202307231459+0e150ed6c4)"
   sodipodi:docname="bat.svg"
   xmlns:inkscape="http://www.inkscape.org/namespaces/inkscape"
   xmlns:sodipodi="http://sodipodi.sourceforge.net/DTD/sodipodi-0.dtd"
   xmlns="http://www.w3.org/2000/svg"
   xmlns:svg="http://www.w3.org/2000/svg">
  <sodipodi:namedview
     id="namedview18798"
     pagecolor="#ffffff"
     bordercolor="#666666"
     borderopacity="1.0"
     inkscape:pageshadow="2"
     inkscape:pageopacity="0.0"
     inkscape:pagecheckerboard="0"
     inkscape:document-units="mm"
     showgrid="false"
     inkscape:snap-nodes="true"
     inkscape:zoom="0.83991382"
     inkscape:cx="269.07522"
     inkscape:cy="204.18762"
     inkscape:window-width="1452"
     inkscape:window-height="991"
     inkscape:window-x="26"
     inkscape:window-y="23"
     inkscape:window-maximized="0"
     inkscape:current-layer="layer1"
     inkscape:showpageshadow="2"
     inkscape:deskcolor="#d1d1d1" />
  <defs
     id="defs18793">
    <inkscape:perspective
       sodipodi:type="inkscape:persp3d"
       inkscape:vp_x="0 : -96.025533 : 1"
       inkscape:vp_y="0 : 999.99994 : 0"
       inkscape:vp_z="210 : -96.025533 : 1"
       inkscape:persp3d-origin="105 : -145.52553 : 1"
       id="perspective36476" />
  </defs>
  <g
     inkscape:label="Layer 1"
     inkscape:groupmode="layer"
     id="layer1"
     transform="translate(-18.903534,-107.81985)">
    <path
       id="path19394"
       style="fill:#000000;stroke-width:0.0740529"
       d="m 129.59836,107.81985 c -1.07498,0.0605 -1.99769,0.6712 -2.91492,1.17124 -0.64862,0.333 -1.16427,0.8622 -1.76741,1.26447 -1.16218,0.85999 -2.24631,1.82218 -3.4386,2.64217 -1.62268,1.16742 -3.23533,2.35041 -4.8911,3.47051 -1.52782,0.97348 -2.99576,2.03702 -4.51842,3.01848 -1.11838,0.73249 -2.22597,1.4884 -3.40999,2.11225 -0.3599,0.20562 -0.71147,0.42531 -1.06712,0.63812 -0.0328,-0.41146 0.39766,-0.64663 0.50336,-1.01888 0.74292,-1.50319 1.69559,-2.91737 2.18938,-4.53247 0.31635,-1.12619 0.51472,-2.28097 0.68169,-3.43711 0.0454,-0.33522 0.1166,-0.74442 -0.11634,-1.02679 -0.27091,-0.27443 -0.68083,-0.30218 -1.03428,-0.39893 -0.70879,-0.13344 -1.43166,-0.18456 -2.15109,-0.21073 -1.74728,0.0404 -3.5325,0.36491 -5.0558,1.26059 -1.34276,0.78146 -2.57862,1.73185 -3.781018,2.71182 -0.327488,0.12017 -0.645382,-0.0983 -0.964269,-0.15163 -1.764927,-0.48213 -3.618719,-0.63511 -5.439025,-0.45247 -0.398603,-0.34965 -0.69481,-0.79803 -1.091097,-1.15078 -0.776247,-0.798 -1.574339,-1.58369 -2.492802,-2.21925 -0.810283,-0.60895 -1.673695,-1.17423 -2.649227,-1.47826 -1.417321,-0.47602 -2.9201,-0.62614 -4.406619,-0.6799 -0.484333,0.0118 -0.998547,0.0397 -1.426692,0.2885 -0.269601,0.24973 -0.218566,0.65399 -0.249192,0.98828 -0.02038,1.03038 0.10257,2.05785 0.235604,3.07779 0.114002,0.86245 0.333538,1.70864 0.655337,2.51688 0.631724,1.71258 1.440579,3.35128 2.159547,5.02703 0.113804,0.27603 0.193724,0.57178 0.138497,0.87116 -0.134998,1.10632 0.03187,2.23804 0.389839,3.28871 0.15233,0.43699 0.343703,0.86043 0.572332,1.26281 0.0655,0.2869 -0.0051,0.76975 -0.370667,0.7836 -0.509546,-5.5e-4 -1.018728,-0.0314 -1.528308,-0.039 -1.070362,-0.0385 -2.151508,-0.2023 -3.133247,-0.64897 -2.391577,-0.94006 -4.606861,-2.25469 -6.856878,-3.48139 -0.980564,-0.49209 -2.008371,-0.91766 -2.87396,-1.60645 -0.7894,-0.60191 -1.463134,-1.33573 -2.172824,-2.02583 -1.344414,-1.35313 -2.657335,-2.73698 -3.964777,-4.12566 -0.52035,-0.52782 -1.034209,-1.06844 -1.615066,-1.53034 -0.539977,-0.39459 -1.269096,-0.59992 -1.91356,-0.35058 -0.958602,0.30416 -1.725472,0.98416 -2.530606,1.5574 -0.94611,0.73513 -1.916547,1.43811 -2.907839,2.11085 -1.609862,1.11874 -3.260062,2.17792 -4.898759,3.25345 -1.313816,0.82627 -2.628825,1.65103 -3.915182,2.51978 -1.655881,1.08819 -3.296827,2.19958 -4.976265,3.25136 -1.642362,1.06546 -3.221212,2.22458 -4.83674,3.3293 -0.666082,0.41678 -1.279722,0.9086 -1.863062,1.43333 -0.81291,0.69696 -1.621648,1.40243 -2.357917,2.18137 -0.440639,0.65689 -0.994795,1.22668 -1.466357,1.86059 -0.988711,1.24317 -1.934238,2.52505 -2.740971,3.89513 -0.715535,1.09683 -1.432138,2.19295 -2.12385,3.30504 -0.771085,1.21771 -1.576233,2.41708 -2.266027,3.68359 -0.798457,1.64303 -1.346634,3.39014 -1.983856,5.09825 -0.277154,0.78734 -0.493791,1.59407 -0.747972,2.38834 -0.51701,2.12719 -0.952206,4.27507 -1.287649,6.43866 -0.114639,0.28084 0.229081,0.31693 0.351442,0.10957 0.512677,-0.3214 1.069028,-0.56583 1.581611,-0.88804 1.57511,-0.90839 3.092233,-1.93752 4.776191,-2.64035 2.486199,-0.96775 5.398619,-0.82977 7.747501,0.45492 0.234092,0.0904 0.507511,0.42026 0.648771,0.0591 2.336293,-2.89506 4.869054,-5.68502 7.911252,-7.85553 1.933469,-1.35546 4.158832,-2.40756 6.538183,-2.60224 1.994458,-0.14731 4.006462,0.31109 5.792631,1.19442 1.151028,0.55938 2.222531,1.2704 3.23298,2.05294 0.0077,0.093 0.168167,-0.25778 0.274892,-0.25655 1.850243,-1.75707 3.419011,-3.84397 5.58415,-5.24393 1.991723,-1.32363 4.441688,-1.84075 6.810192,-1.6976 2.138932,0.0977 4.235916,0.60361 6.270787,1.24597 -0.855283,1.36933 -1.55161,2.9153 -1.565222,4.55717 -0.02291,1.6203 0.732506,3.16396 1.79307,4.35452 0.40277,0.46393 0.846538,0.89107 1.313174,1.29024 -1.134795,0.60816 -2.260175,1.26791 -3.201425,2.15647 -0.264732,0.44117 -0.111918,0.97366 -0.01263,1.44046 0.08461,0.28386 0.245666,0.77458 0.327364,0.91535 0.0013,-0.45702 2.85e-4,-0.93422 0.166271,-1.36532 0.22625,-0.39488 0.64406,-0.61622 0.964515,-0.9238 0.399826,-0.33186 0.800957,-0.66283 1.220983,-0.96906 -0.483327,0.63944 -1.144463,1.172 -1.42426,1.94473 -0.166714,0.61101 0.144353,1.20485 0.268378,1.79279 0.04721,0.23352 0.219456,0.12601 0.129562,-0.0618 -0.06237,-0.45764 -0.104156,-0.97747 0.204648,-1.36204 0.296907,-0.48977 0.692622,-0.90906 1.009179,-1.38518 0.245726,-0.0592 0.313623,-0.60639 0.539806,-0.4933 -0.132667,0.35551 -0.422128,0.63345 -0.515106,1.00687 -0.18672,0.47918 -0.440489,0.94435 -0.522022,1.456 -0.03295,0.49319 0.106347,0.97655 0.264275,1.43828 0.277413,0.10209 0.169022,-0.42313 0.241753,-0.59519 0.186274,-1.2713 0.889448,-2.37835 1.581089,-3.43154 0.206902,-0.33388 0.436617,-0.69109 0.428031,-1.09935 -0.184209,-0.3232 -0.156743,-0.73462 0.192097,-0.92123 0.950102,-1.01887 1.868331,-2.17946 2.127488,-3.58447 0.07703,-0.46222 0.07178,-0.93812 -0.01639,-1.39838 0.347786,-0.20977 0.69272,0.11963 1.038911,0.16378 1.078351,0.26241 2.172911,0.46601 3.2821,0.53628 2.492047,0.18398 4.989936,-0.13868 7.430239,-0.62751 0.290167,0.004 0.85642,-0.38595 0.946274,0.0539 0.03476,0.33709 -0.07329,0.67003 -0.06227,1.00791 -0.09872,1.01874 -0.193931,2.11773 0.304838,3.05506 0.295254,0.56245 0.748927,1.0317 1.270899,1.38881 -0.206001,0.26093 -0.678311,0.43206 -0.561682,0.84165 0.06146,0.9777 0.508386,1.87942 0.608416,2.85178 0.109803,0.7258 -0.01794,1.45253 -0.06172,2.1772 -0.03365,0.18225 0.0019,0.27731 0.13576,0.10378 0.248389,-0.26645 0.381419,-0.61404 0.554773,-0.92864 0.330949,-0.81286 0.127402,-1.70541 -0.04775,-2.52918 -0.01628,-0.10802 -0.148494,-0.60336 0.0132,-0.28529 0.263034,0.5183 0.437644,1.07559 0.657719,1.61239 0.156788,0.43683 0.328713,0.91141 0.222626,1.37912 -0.04204,0.16475 -0.350765,0.56411 -0.216832,0.59432 0.197093,-0.27643 0.350079,-0.58187 0.543468,-0.86087 0.243281,-0.41758 0.343062,-0.93758 0.157979,-1.39712 -0.17602,-0.58971 -0.513231,-1.11895 -0.6635,-1.71756 0.500112,0.80264 1.116615,1.53559 1.537141,2.38562 0.128909,0.45832 -0.160645,0.8934 -0.166688,1.34387 0.210929,-0.065 0.318784,-0.36883 0.433324,-0.56658 0.176963,-0.41628 0.487057,-0.79938 0.495497,-1.26768 -0.09293,-0.53389 -0.508142,-0.9263 -0.791069,-1.36653 -0.468913,-0.6265 -0.954303,-1.24844 -1.541217,-1.77018 -0.226433,-0.0782 -0.666698,-0.42424 -0.331282,-0.63022 0.801784,-0.4128 1.509076,-1.00102 2.119505,-1.66245 0.993484,-1.08052 1.672904,-2.43294 1.983424,-3.86532 0.37899,-1.58088 0.35291,-3.23637 0.0854,-4.83262 -0.23674,-1.3454 -0.67396,-2.65632 -1.30212,-3.86982 1.58832,-0.51278 3.19713,-0.96014 4.80699,-1.39969 4.38856,-1.17277 8.88586,-2.07743 13.44181,-2.15578 0.69057,-0.0145 1.38082,0.0263 2.06944,0.0641 0.35277,-0.01 0.70844,-0.0752 1.0597,-0.0114 0.0364,0.35254 0.4524,0.19925 0.6829,0.17294 0.4927,0.015 0.98121,0.12277 1.46724,0.20554 2.66117,0.50767 5.25204,1.55927 7.37018,3.27092 0.21602,0.18231 0.43162,0.45118 0.72664,0.24715 0.36483,-0.16956 0.70182,-0.39351 1.07266,-0.55221 1.71737,-0.82664 3.45447,-1.61373 5.21315,-2.34858 0.75074,-0.30064 1.50039,-0.6149 2.27644,-0.84288 1.26858,-0.29777 2.48381,-0.82851 3.79113,-0.95194 0.70578,-0.0899 1.4094,-0.19803 2.11359,-0.29675 1.08411,-0.0844 2.17134,0.04 3.2471,0.16673 2.8624,0.38703 5.64686,1.19682 8.3855,2.09478 1.37713,0.46353 2.75596,0.92398 4.1572,1.31022 1.19954,0.34915 2.40424,0.73225 3.49197,1.35736 0.23655,0.14997 0.56532,0.0408 0.63094,-0.24332 0.27416,-0.54138 0.76683,-0.91707 1.20806,-1.3154 1.51545,-1.2787 3.25629,-2.26813 5.08179,-3.03189 2.06532,-0.88814 4.23495,-1.49199 6.3441,-2.26128 0.32204,-0.11974 0.64207,-0.245 0.95879,-0.37823 0.15928,-0.40618 -0.46623,-0.53691 -0.50768,-0.91762 -0.67869,-1.21281 -1.3749,-2.41727 -2.11905,-3.59103 -0.74125,-1.07985 -1.55093,-2.11154 -2.37932,-3.1254 -0.42217,-0.51202 -0.91708,-0.95744 -1.44872,-1.35278 -1.59372,-1.24772 -3.31083,-2.32753 -5.04868,-3.36052 -0.64353,-0.34744 -1.26884,-0.72779 -1.91137,-1.07686 -2.83429,-1.64437 -5.71023,-3.21725 -8.61986,-4.72414 -1.03298,-0.52642 -2.10431,-0.97295 -3.17484,-1.41637 -1.70338,-0.65853 -3.41076,-1.32187 -5.18435,-1.77008 -2.22706,-0.58963 -4.48357,-1.05876 -6.73395,-1.54886 -1.98786,-0.40829 -3.98216,-0.78712 -5.95767,-1.25317 -1.83483,-0.39149 -3.69248,-0.66305 -5.5466,-0.94397 -0.46723,-0.0621 -0.93588,-0.11295 -1.40396,-0.16781 z m -15.71889,50.86995 c -0.40205,0.10114 0.30681,0.48498 0.19508,0.0931 -0.0363,-0.0714 -0.12253,-0.0902 -0.19508,-0.0931 z" />
    <path
       id="path37386"
       style="fill:#666666;fill-opacity:1;stroke:none;stroke-width:0.640887px;stroke-linecap:butt;stroke-linejoin:miter;stroke-opacity:1"
       d="m 487.54297,414.00781 c -19.24377,15.50019 -38.29533,31.47041 -59.68945,43.98242 -8.67066,5.1165 -17.72286,9.58457 -27.05274,13.36719 0.22262,-2.68172 -0.48287,-5.48009 -0.80859,-8.02734 4.89872,-6.35146 9.34204,-13.31198 11.32422,-21.16992 0.88792,-3.53292 1.2177,-7.21265 0.89062,-10.84375 -5.99524,-1.07974 -12.1984,0.29311 -17.61719,2.92578 -3.8736,1.85068 -7.46264,4.24413 -10.87109,6.84179 -13.9805,-9.23672 -32.67678,-10.98129 -47.98047,-4.01953 0.52137,-0.24966 0.81301,-0.54201 0.0176,-1.06836 -4.87838,-5.35479 -10.39392,-10.4133 -17.17969,-13.20312 -3.08187,-1.25798 -6.40007,-1.95629 -9.73242,-1.96094 -1.8092,6.57698 -1.22054,13.60604 0.74414,20.07617 1.45917,4.88202 4.14815,10.07569 6.60156,14.63477 -2.77223,7.0488 -2.87175,15.13229 0.38477,22.10742 l 1.72656,3.41211 c -0.77339,1.7814 -1.5559,3.5594 -2.33594,5.33789 -6.99495,0.85519 -14.15281,0.65897 -21.01953,-0.99805 -10.51543,-2.49437 -20.07993,-8.0059 -28.48633,-14.68164 -11.68073,-9.20451 -21.60279,-20.3429 -31.90234,-31.00586 -0.80119,-0.65786 -1.55831,-2.4352 -2.71289,-1.15039 -18.47585,10.69743 -38.3163,18.75544 -57.01563,29.03125 -17.65761,9.59161 -34.39292,21.18691 -48.41015,35.66602 -17.19565,17.59812 -30.143019,39.01756 -39.396486,61.73437 -5.200032,12.68867 -9.346389,25.79454 -12.714843,39.08203 8.234456,-4.04042 15.399352,-10.17179 24.199218,-13.05859 3.885221,-1.26047 7.985251,-1.85419 12.068361,-1.75781 0.12937,-3.20893 0.97723,-6.33027 1.64453,-9.45703 2.87709,-12.34651 6.5437,-24.51284 11.01758,-36.375 2.94445,-7.65294 6.16306,-15.29327 10.81055,-22.08985 1.64667,-2.34308 3.522,-4.62256 6.0039,-6.11914 -7.4447,12.39236 -12.11345,26.26924 -15.06445,40.36914 -2.41622,11.77376 -3.62124,23.8433 -2.95899,35.86133 2.07571,0.7821 4.03965,1.82536 5.97657,2.89844 8.69526,-10.84698 18.09374,-21.30623 29.3164,-29.60547 6.98949,-5.11272 14.89487,-9.40272 23.57422,-10.62109 3.7582,-0.55261 7.55647,-0.13129 11.30469,0.27539 1.42042,0.39148 0.76936,-1.75391 1.22461,-2.61719 1.80467,-9.24559 6.46902,-17.59812 11.46679,-25.4668 3.23236,-5.09563 6.6777,-10.05636 9.77344,-15.23828 -0.30614,1.40436 -0.94819,2.77393 -1.41992,4.15039 -2.64432,7.04531 -5.55325,13.99772 -7.76758,21.19727 -1.99445,6.29798 -3.68015,12.6932 -5.09179,19.14648 -0.68929,1.28281 1.49743,1.11767 2.16015,1.69922 5.33271,2.29667 10.2873,5.41772 14.80469,9.05469 7.38338,-6.75508 13.40807,-15.04522 21.85351,-20.59375 6.89637,-4.66258 15.30128,-6.81167 23.58204,-6.67383 8.91688,0.0484 17.68584,2.10008 26.14843,4.77148 -3.33689,5.37226 -6.07606,11.46464 -5.9082,17.91407 0.099,5.73071 2.77812,11.11534 6.45703,15.39648 1.60095,1.89971 3.39509,3.62761 5.27539,5.24805 l 5.375,0.0352 c 3.74141,-3.88056 7.51601,-8.0594 9.21485,-13.28516 0.81563,-2.55681 0.94507,-5.33128 0.32617,-7.94531 9.11223,3.15065 18.89369,3.97237 28.46875,3.22656 6.61461,-0.50257 13.15948,-1.66869 19.63281,-3.0918 0.12,4.74724 -1.30086,9.57822 0.0625,14.25391 0.93247,3.13942 3.22586,5.7495 5.91406,7.51953 0.95125,-0.0265 2.00636,0.48635 2.87891,0.0547 5.96559,-3.1505 10.90212,-8.23865 13.72461,-14.37891 3.72722,-8.0307 4.15816,-17.26128 2.51758,-25.86719 -0.93211,-4.83741 -2.51857,-9.56046 -4.79883,-13.93164 19.52515,-5.96175 39.41085,-11.30989 59.82812,-12.97265 4.95153,-0.3583 9.92865,-0.60047 14.88868,-0.28711 1.55482,0.43468 2.00026,-1.25479 1.98242,-2.43555 0.17915,-4.02421 -0.47807,-8.02842 -1.02735,-12.00195 -1.44143,-9.53741 -3.51102,-18.96245 -5.38476,-28.41992 -0.40948,-0.73047 0.47008,-1.78696 0.85937,-0.65235 1.2457,2.59121 1.85878,5.42867 2.61914,8.1875 2.5592,10.26221 4.65314,20.6376 6.51758,31.04688 0.23244,1.63717 0.66929,3.28398 0.63281,4.93359 0.83014,0.53431 1.92933,0.009 2.86915,0.0586 3.37439,0.32996 6.71177,1.05103 10,1.875 8.95963,2.28839 17.51116,6.44119 24.51757,12.51953 12.56334,-5.65647 24.86646,-12.08059 38.11914,-16.02343 3.79325,-1.11443 7.66938,-1.97554 11.60157,-2.41211 1.1255,-0.34129 1.21319,-1.73881 1.26172,-2.72852 -0.0151,-3.71274 -1.03226,-7.3313 -1.95118,-10.90039 -2.96292,-10.54594 -6.83095,-20.81135 -10.86718,-30.98633 -0.80667,-1.97215 -1.57816,-3.96216 -2.47266,-5.89648 6.23709,10.25348 12.23953,20.67983 17.29102,31.57617 1.92272,4.34139 3.88901,8.7479 4.70898,13.45508 0.19389,1.53914 0.41205,3.38961 -0.74414,4.62109 9.6438,-0.11149 19.17299,1.84778 28.45898,4.28516 7.57712,1.99653 14.99619,4.52663 22.42383,7.00781 7.29543,2.29863 14.90121,3.91718 21.65039,7.6543 6.47928,-7.38652 14.83506,-12.93305 23.79492,-16.85938 9.22549,-4.14584 19.0678,-6.63855 28.4668,-10.32812 1.22143,-0.28422 -0.72862,-1.22311 -1.01367,-1.83203 -6.63942,-6.93135 -12.61698,-14.46916 -19.38086,-21.28516 -12.07642,-12.39855 -26.2028,-22.748 -41.52149,-30.7832 -22.17796,-11.75373 -46.28047,-19.38876 -70.63476,-25.15235 -19.13318,-4.48478 -38.53905,-7.73337 -58.02539,-10.23046 z"
       transform="scale(0.26458333)"
       sodipodi:nodetypes="cccccccccccccccccccccccccccccccccccccccccccccccccccccccccccccccccccccccccccccccccccccccccccccc" />
    <path
       id="path21960"
       style="fill:#333333;fill-opacity:1;stroke:none;stroke-width:0.169568px;stroke-linecap:butt;stroke-linejoin:miter;stroke-opacity:1"
       d="m 93.854474,114.50557 c -4.175476,0.0197 -8.749452,2.13993 -10.293477,6.2449 -0.83998,2.14474 -0.445726,4.61934 0.638092,6.57244 -1.036037,2.40148 -2.171676,4.77895 -2.845874,7.31537 -0.27882,1.09058 -0.473768,2.2237 -0.363109,3.35188 -1.698168,2.21278 -3.66539,4.24425 -5.015315,6.70478 -0.761446,1.39492 -1.278356,3.00661 -1.033021,4.60886 0.244827,1.69451 1.289157,3.15513 2.510063,4.30396 0.242298,0.16086 0.408847,0.54096 0.739323,0.48338 0.406393,0.003 0.812787,0.005 1.21918,0.007 0.973204,-1.00734 1.954093,-2.08954 2.414851,-3.43878 0.236278,-0.69766 0.281071,-1.4607 0.109138,-2.17818 2.592588,0.89924 5.387016,1.07797 8.103697,0.80541 1.556607,-0.15073 3.097456,-0.43277 4.623559,-0.76997 0.03767,1.25594 -0.352477,2.53583 0.01636,3.77152 0.244365,0.83087 0.852627,1.52291 1.564668,1.98929 0.219492,0.0231 0.438983,0.0463 0.658475,0.0694 1.677868,-0.85611 3.058613,-2.28847 3.808726,-4.02041 0.98779,-2.24571 1.02845,-4.81215 0.48957,-7.17776 -0.25806,-1.12054 -0.64988,-2.21242 -1.18678,-3.23008 0.91731,-1.76943 1.53722,-3.68046 1.9313,-5.63103 0.26415,-1.26048 0.46405,-2.53432 0.7669,-3.78665 2.74795,-1.95006 4.12857,-5.72596 2.91852,-8.91984 -1.0012,-2.82943 -3.46471,-4.92954 -6.19312,-6.03513 -1.764393,-0.72018 -3.676801,-1.06948 -5.581723,-1.04038 z" />
    <path
       id="path19455"
       style="fill:#1a1a1a;fill-rule:evenodd;stroke-width:0.480668;paint-order:markers fill stroke;stop-color:#000000"
       d="m 106.03471,124.84655 a 11.503311,9.1833161 5.657806 0 1 -12.352634,8.00451 11.503311,9.1833161 5.657806 0 1 -10.541914,-10.27266 11.503311,9.1833161 5.657806 0 1 12.352625,-8.0045 11.503311,9.1833161 5.657806 0 1 10.541923,10.27265 z" />
    <g
       id="g38385">
      <path
         id="path19732"
         style="fill:#f2f2f2;fill-rule:evenodd;stroke-width:0.453598;paint-order:markers fill stroke;stop-color:#000000"
         d="m 92.867278,123.75085 a 3.2123403,2.1415603 26.453145 0 1 -3.829999,0.48634 3.2123403,2.1415603 26.453145 0 1 -1.92201,-3.34832 3.2123403,2.1415603 26.453145 0 1 3.829994,-0.48635 3.2123403,2.1415603 26.453145 0 1 1.922015,3.34833 z" />
      <path
         id="path20455"
         style="fill-rule:evenodd;stroke-width:0.480668;paint-order:markers fill stroke;stop-color:#000000"
         d="m 92.507609,122.74817 a 1.5794005,1.5526312 0 0 1 -1.579401,1.55263 1.5794005,1.5526312 0 0 1 -1.5794,-1.55263 1.5794005,1.5526312 0 0 1 1.5794,-1.55263 1.5794005,1.5526312 0 0 1 1.579401,1.55263 z" />
      <path
         id="path19732-8"
         style="fill:#f2f2f2;fill-rule:evenodd;stroke-width:0.453598;paint-order:markers fill stroke;stop-color:#000000"
         d="m 96.200132,124.0118 a 2.1415603,3.2123403 81.087149 0 0 3.505349,1.61801 2.1415603,3.2123403 81.087149 0 0 2.841759,-2.6134 2.1415603,3.2123403 81.087149 0 0 -3.505352,-1.618 2.1415603,3.2123403 81.087149 0 0 -2.841756,2.61339 z" />
      <path
         id="path20455-5"
         style="fill-rule:evenodd;stroke-width:0.480668;paint-order:markers fill stroke;stop-color:#000000"
         d="m 96.845255,123.16414 a 1.5794005,1.5526312 17.540294 0 0 1.038041,1.95643 1.5794005,1.5526312 17.540294 0 0 1.973888,-1.00445 1.5794005,1.5526312 17.540294 0 0 -1.038035,-1.95643 1.5794005,1.5526312 17.540294 0 0 -1.973894,1.00445 z" />
      <path
         id="path20688"
         style="fill:#e9afaf;fill-rule:evenodd;stroke-width:0.480668;paint-order:markers fill stroke;stop-color:#000000"
         d="m 96.07644,126.49879 c -0.06844,0.25184 -0.131203,0.56467 -0.372517,0.70466 -0.262611,-0.0502 -0.423371,-0.50089 -0.735092,-0.38222 -0.223346,0.18797 0.07871,0.62984 -0.217014,0.71549 -0.362523,10e-4 -0.697015,-0.19255 -1.062662,-0.1683 -0.350522,-0.0367 0.07004,-0.6432 -0.333635,-0.70421 -0.297615,-0.0485 -0.516442,0.42 -0.789321,0.2003 -0.224096,-0.29851 -0.262813,-0.70585 -0.225677,-1.06753 0.116047,-0.56105 0.705718,-0.84103 1.224439,-0.91012 0.810281,-0.1025 1.710246,0.14207 2.256482,0.77364 0.19094,0.23051 0.314305,0.53635 0.254997,0.83829 z"
         sodipodi:nodetypes="sssssssss" />
      <path
         style="fill:#ff0000;stroke:none;stroke-width:0.169568px;stroke-linecap:butt;stroke-linejoin:miter;stroke-opacity:1"
         d="m 89.156292,126.4651 c 1.475371,0.37171 2.790023,1.22456 4.298035,1.48868 1.861121,0.35216 3.771151,0.0357 5.589547,-0.40048 0.16019,-0.0426 -0.16897,0.18461 -0.210731,0.25201 -0.931738,0.86469 -1.872935,1.75672 -3.008829,2.34982 -0.675478,0.35624 -1.500469,0.49796 -2.223361,0.19533 -0.929467,-0.37617 -1.654883,-1.10147 -2.369574,-1.78054 -0.703209,-0.69014 -1.382715,-1.40391 -2.075087,-2.10482 z"
         id="path20821"
         sodipodi:nodetypes="ccc" />
      <path
         id="path21301"
         style="fill:#ffffff;stroke:none;stroke-width:0.640887px;stroke-linecap:butt;stroke-linejoin:miter;stroke-opacity:1"
         d="m 344.39453,480.66016 c 1.76096,2.43462 3.52224,4.86811 5.2832,7.30273 0.62742,-1.58453 1.2554,-3.16938 1.88282,-4.75391 -2.45743,-0.63087 -4.85814,-1.496 -7.16602,-2.54882 z m 24.60156,2.55859 c -2.48398,0.51424 -5.01457,0.82807 -7.55078,0.89648 0.26003,1.68428 0.51927,3.36843 0.7793,5.05274 2.25745,-1.98301 4.51403,-3.96622 6.77148,-5.94922 z"
         transform="scale(0.26458333)" />
    </g>
  </g>
</svg>
