<?xml version="1.0" encoding="UTF-8" standalone="no"?>
<svg
   enable-background="new 9.145 -0.97 1466.71 1932.97"
   version="1.1"
   viewBox="9.145 -0.97 2213.8817 1614.7495"
   id="svg29"
   sodipodi:docname="GraveYard.svg"
   inkscape:version="1.3 (1:1.3+202307231459+0e150ed6c4)"
   width="2213.8816"
   height="1614.7495"
   xmlns:inkscape="http://www.inkscape.org/namespaces/inkscape"
   xmlns:sodipodi="http://sodipodi.sourceforge.net/DTD/sodipodi-0.dtd"
   xmlns="http://www.w3.org/2000/svg"
   xmlns:svg="http://www.w3.org/2000/svg">
  <defs
     id="defs29" />
  <sodipodi:namedview
     id="namedview29"
     pagecolor="#ffffff"
     bordercolor="#666666"
     borderopacity="1.0"
     inkscape:showpageshadow="2"
     inkscape:pageopacity="0.0"
     inkscape:pagecheckerboard="0"
     inkscape:deskcolor="#d1d1d1"
     inkscape:zoom="0.8629208"
     inkscape:cx="27.812518"
     inkscape:cy="880.72972"
     inkscape:window-width="1920"
     inkscape:window-height="1016"
     inkscape:window-x="0"
     inkscape:window-y="0"
     inkscape:window-maximized="1"
     inkscape:current-layer="g30" />
  <linearGradient
     id="a"
     x1="742.5"
     x2="742.5"
     y1="1932"
     y2="-0.97000003"
     gradientUnits="userSpaceOnUse"
     gradientTransform="matrix(1.5094303,0,0,0.83535927,-11.823295,318.09082)">
    <stop
       stop-color="#FBC510"
       offset="0"
       id="stop1" />
    <stop
       stop-color="#6B4B63"
       offset="1"
       id="stop2" />
  </linearGradient>
  <g
     id="g30"
     transform="translate(7.1645526,-318.25052)">
    <rect
       x="1.9804473"
       y="317.28052"
       width="2213.8816"
       height="1614.7495"
       fill="url(#a)"
       id="rect2"
       style="fill:url(#a);stroke-width:0.999995" />
    <circle
       cx="1926.8173"
       cy="880.65527"
       r="244"
       fill="#f9f498"
       id="circle2" />
    <g
       fill="#060100"
       id="g29"
       transform="translate(-2.8457026)">
      <path
         d="m 654,1645.3 c -1.0898,-2 -1.9697,-4.27 -3.9299,-5.5599 0.52,2.28 1.75,4.4599 3.9299,5.5599 z"
         id="path23" />
      <path
         id="path19-7"
         style="stroke-width:1"
         d="m 955.57829,802.18876 c -0.001,0.002 -0.005,0.002 -0.006,0.004 0.002,-4e-4 0.004,-0.002 0.006,-0.002 z m -0.006,0.004 c -46.72862,8.3005 -88.76419,26.1885 -122.96094,48.6875 -18.46073,12.2999 -34.75524,25.9805 -49.13867,40.4805 4.85967,-19.57 5.14681,-41.3404 -11.67383,-58.5703 -16.14373,-16.26 -46.64197,-23.1905 -74.86719,-23.2305 22.11677,1.9401 45.16659,6.4906 60.94922,17.5605 10.21585,7.1201 16.32479,16.5297 18.67188,26.1797 3.68612,14.65 0.37598,29.621 -5.07031,43.8809 -2.96425,7.11 -5.94316,14.2992 -10.84766,20.9492 -4.78475,6.3201 -9.02671,12.8298 -12.86328,19.4297 -4.12246,6.85 -6.69566,14.1802 -12.6836,20.4902 -13.07476,14.51 -34.3187,24.5597 -55.21679,33.6797 -20.05554,8.99004 -41.87151,16.94074 -57.54883,29.47074 -9.58379,7.7 -14.60852,17.999 -12.15625,27.959 4.3785,17.7799 16.83403,34.0909 22.7168,51.6309 3.94204,10.15 5.65829,21.0897 0.94921,31.2597 -4.82988,10.71 -16.60964,19.3695 -29.8496,25.9395 -18.43066,9.5999 -40.89487,14.6104 -60.72457,22.6504 -23.6816,9.3801 -46.1589,20.0402 -67.9747,31.2402 -4.1224,2.1101 -8.2001,4.2596 -12.2773,6.4297 -50.5375,26.92 -97.977,56.3209 -143.9258,86.6309 -23.516,15.5499 -46.8214,31.2592 -69.3594,47.4492 -10.3511,-14.87 -20.8682,-29.7001 -31.1894,-44.5801 -11.7354,-16.6399 -23.5146,-33.9905 -24.5527,-52.6504 -0.7222,-13.18 7.2661,-25.7688 18.2793,-36.4687 10.5765,-10.88 22.8697,-20.9507 33.8378,-31.6407 7.4926,-7.08 14.0832,-14.5507 21.5606,-21.6406 8.8766,-8.5701 19.2421,-16.4786 31.0527,-23.3086 48.4614,5.8701 98.5029,-3.8301 139.6973,-20.8301 -0.075,0.55 -0.2099,1.6589 -0.2852,2.209 16.1137,1.6699 32.7234,5.7815 43.3907,14.3516 8.8164,6.9701 10.8324,16.7193 8.3496,25.4492 -2.6175,10.77 -10.5161,20.4501 -17.9942,30 10.6373,-10.0299 20.2207,-21.0005 23.5157,-33.2305 2.4071,-8.7001 0.2855,-18.1587 -7.5079,-25.4687 -9.1627,-8.96 -24.1617,-14.3502 -39.3125,-17.6602 15.0304,-6.79 28.6617,-14.9107 40.668,-23.9707 21.3645,-16.53 36.5156,-36.0102 50.7637,-55.4902 13.9321,-18.3799 28.2397,-37.57034 52.86912,-50.74024 0.79786,-0.55 2.39206,-1.6397 3.18946,-2.1797 -15.88797,5.78 -27.42828,15.61934 -37.73438,25.27934 -25.9534,25.7699 -43.0447,55.601 -75.8437,78.2109 -17.8739,13.02 -40.1564,23.0897 -63.9883,30.6797 -31.3547,10.12 -66.8329,15.7802 -101.7383,12.9902 24.0125,-14.46 42.415,-32.3593 60.0332,-50.2793 10.4867,-10.97 20.2357,-22.2298 30.3613,-33.3398 17.6784,-17.15 40.8183,-31.3817 63.9883,-45.1817 35.5825,-20.91994 73.6765,-39.83894 112.17774,-58.29884 -4.63414,1.01 -9.20624,2.1292 -13.70504,3.3692 -38.8323,10.5499 -76.5518,23.2214 -111.0059,39.1914 -21.2141,9.9899 -41.3749,21.35814 -56.8867,35.32814 -10.3063,9.7999 -19.6793,20.0216 -29.9102,29.8515 -14.1875,14.07 -30.0618,27.3687 -47.6347,39.6387 -21.6053,15 -43.9481,29.5211 -66.5313,43.8711 -19.0174,12.2099 -38.6521,24.0106 -56.3906,37.0606 -21.7557,16.0999 -41.0743,34.1297 -52.0274,54.6796 -19.9351,-15.7399 -32.588,-36.1611 -30.5117,-56.9511 1.5497,-17.56 11.9617,-34.2404 25.7129,-49.0703 23.3957,-24.56 48.6713,-48.3297 75.377,-71.3496 12.7585,-11.54 26.5868,-22.729 35.9902,-35.709 5.6872,-7.84 9.086,-16.33004 10.9219,-24.92004 1.1585,-6.7798 1.5953,-13.6001 1.7304,-20.4101 -0.4811,-20.9599 8.7119,-41.7313 23.9981,-59.9512 12.8488,-15.52 30.1065,-29.3502 50.1621,-40.9902 9.4636,-5.26 19.2428,-10.6884 31.1738,-13.2383 21.8912,-4.8201 45.6014,-4.6213 68.1094,-2.0312 38.7721,4.4799 74.8828,17.8806 101.1973,37.3105 -18.5661,-16.3899 -44.6252,-28.7495 -73.2266,-36.2695 -27.7889,-7.2101 -58.392,-10.3015 -87.9863,-7.1817 -12.0063,1.29 -23.5457,4.2615 -33.6563,8.7715 -44.73,20.3599 -79.4412,51.1288 -93.3281,86.1387 -7.8988,18.06 -3.1729,37.3401 -11.5078,55.3301 -3.8216,8.55994 -10.834,16.29034 -18.6426,23.49024 -18.9723,16.56 -39.2681,32.4508 -58.1953,49.0508 0.5415,-16.73 -3.9266,-33.3008 -9.4785,-49.5508 -4.1526,-10.3199 -8.7103,-20.55884 -13.6758,-30.71884 -2.6477,-5.6799 -5.5379,-11.3311 -7.0723,-17.2011 -1.4296,-4.6799 0.2868,-9.4187 1.8965,-13.9688 2.3321,-5.97 5.0238,-11.8811 8.3789,-17.6211 17.3775,-31.4899 41.1962,-61.3595 69.1055,-89.2695 4.7244,-4.9799 10.3954,-9.5294 15.0742,-14.5195 -4.7391,3.1899 -8.6504,6.8485 -12.7578,10.3886 -29.6846,26.53 -54.6596,55.3707 -74.9258,85.5606 -4.5592,7.1 -8.9078,14.2701 -12.2929,21.6601 -2.7986,6.0801 -5.4314,12.4199 -4.1524,18.8399 1.6853,9.53 6.0335,18.7308 9.2832,28.05084 -15.572,-13.31004 -35.8992,-25.18994 -60.96483,-29.50984 -23.8922,-4.16 -49.5749,0.028 -70.127,8.6484 11.7507,-3.37 23.5905,-6.9793 36.4844,-7.8593 17.4377,-1.5499 35.4627,1.2899 50.31253,7.5 21.9212,9.2101 38.1252,23.45014 49.7402,38.66014 4.1827,10.61 5.9578,21.6308 7.3418,32.5508 1.5046,10.9799 -0.4504,21.9592 -0.5859,32.9492 0.06,3.51 -4.7693,5.7999 -7.2969,8.5899 -11.6154,11.19 -24.0887,22.0803 -33.1309,34.3203 -8.2,10.51 -13.9162,21.8505 -17.166,33.4804 -5.71723,22.25 0.9467,45.49 17.6172,65.0899 8.9972,10.13 19.8912,19.4803 32.3789,27.8203 -1.9408,13.0599 -1.1441,26.229 1.6094,39.209 7.929,35.4299 27.0231,69.1702 46.4316,102.4101 8.2751,14.16 17.933,27.9704 25.4707,42.3204 13.7965,24.6099 23.0642,51.1004 18.3399,77.4804 -3.581,20.35 -15.375,39.4488 -26.4785,58.3887 -9.2381,15.58 -17.709,31.3612 -24.7051,47.4512 -8.8315,21.4899 -19.8895,42.5798 -27.2617,64.3398 -5.2659,15.0099 -8.6067,30.2998 -10.3067,45.6797 -0.9477,11.23 -0.9943,22.4905 -0.332,33.7305 0.7071,5.52 1.1285,11.0598 1.9707,16.5898 6.01,39.7573 20.6627,78.5893 38.2695,116.7481 h 88 c -11.1429,-19.1983 -21.5545,-38.5925 -30.7441,-58.2403 -7.7788,-17.05 -14.7449,-34.3395 -18.3105,-52.0195 -2.6029,-13.53 -0.9785,-27.2212 1.5039,-40.7012 3.4454,-17.72 8.8472,-35.2501 15.2714,-52.5801 9.8244,-27.4498 21.7096,-54.5395 34.0918,-81.5195 13.9472,-32.07 29.9857,-63.7996 40.8184,-96.4394 2.6029,-9.24 4.3488,-18.6799 3.1602,-28.0899 -2.302,-22.99 -12.6382,-45.1908 -24.0879,-66.8008 -5.2659,-9.69 -11.0129,-19.2708 -16.8809,-28.8007 26.2844,-19.4899 52.9158,-38.7694 79.832,-57.8594 16.5952,8.7899 35.5375,15.4411 55.2168,20.6211 28.8873,7.5901 59.6103,11.9101 90.5586,13.4101 2.1518,0.1801 4.6481,0.059 6.3028,1.1992 14.2482,8.2101 23.6358,20.4494 23.4101,33.1094 -0.4363,11.92 -8.2135,23.191 -18.625,32.711 -18.9121,17.8198 -45.5121,31.099 -72.1426,43.4589 17.3023,-5.2 33.8672,-11.4895 49.6348,-18.5195 23.8019,-10.99 46.4893,-24.64 57.9238,-42.75 9.96,-15.41 8.6366,-33.5198 -2.4218,-48.5098 15.271,-0.6 30.5266,-1.3696 45.61715,-3.0996 23.3204,-2.78 46.14471,-7.3708 67.90039,-13.6308 26.91626,-7.61 52.04262,-17.6799 76.92773,-27.8399 24.91523,-10.1 50.02556,-20.4099 77.81445,-26.6699 11.58498,-2.7999 23.77305,-4.0006 35.7793,-5.6406 -9.61417,-0.7 -19.19933,0.7999 -28.63281,1.9199 -39.79514,5.72 -74.92482,19.9611 -110.89844,31.9609 -42.71396,14.79 -89.19124,26.1101 -137.75777,27.3301 -57.0674,1.53 -116.195,-4.9398 -166.0254,-24.2597 -9.1323,-3.5599 -17.7846,-7.6605 -25.7285,-12.3106 42.5183,-29.08 85.2174,-58.1492 131.4218,-84.6992 9.223,2.3 19.0177,3.2691 28.6016,4.6992 38.757,5.25 78.01183,8.9612 117.46093,10.8711 64.28909,2.87 130.27891,1.9689 192.17578,-11.1211 31.65557,-6.08 65.07121,-10.7694 98.05078,-7.2793 22.50789,2.3199 43.12003,9.2595 62.25783,17.1895 23.2151,9.6899 45.9779,19.9304 70.5019,28.1504 13.2252,4.3301 24.9159,10.6196 34.3946,18.0996 13.6464,10.52 23.9076,22.7498 33.0703,35.1797 1.3841,1.92 2.6929,3.8605 4.0469,5.8105 10.953,15.67 20.492,31.7697 31.4902,47.4297 10.0805,14.17 21.3639,28.4104 38.5156,39.4004 11.4798,7.49 26.5101,12.8499 42.6387,13.9199 -7.9138,-1.72 -16.2637,-2.7396 -23.5156,-5.5996 -21.0335,-7.7599 -34.7106,-21.6697 -45.4981,-35.5195 -17.0615,-21.93 -28.2689,-45.591 -43.8711,-67.961 -4.694,-6.47 -9.4035,-12.9601 -14.8652,-19.1601 -10.1704,-11.47 -22.5385,-22.359 -38.6973,-30.3789 -8.1395,-4.1 -17.4521,-6.9918 -26.1484,-10.5118 -12.7435,-5.08 -25.2459,-10.4399 -37.3574,-16.1699 28.842,-16.29 68.8914,-22.2188 105.873,-18.2988 15.4968,1.4102 32.0937,4.2391 42.6856,12.459 12.894,9.87 15.6606,23.3714 24.5976,34.6914 6.3341,8.6399 16.2195,16.0394 28.2559,21.3594 19.7847,8.3197 43.0012,12.3303 66.0508,14.1503 -13.8568,-1.92 -27.8199,-3.8715 -40.9395,-7.5214 -14.4736,-3.71 -28.1946,-9.2483 -38.2148,-17.2383 -9.3578,-7.28 -14.4293,-16.4208 -18.8379,-25.3906 -4.5738,-9.3999 -9.5383,-19.3493 -20.8223,-26.1993 -13.2551,-8.1399 -31.6264,-10.6811 -48.8984,-12.3711 -38.6368,-3.61 -80.192,2.65 -110.2227,19.67 -17.558,-7.91 -35.65817,-15.6792 -55.93945,-20.1192 -27.71364,-6.3199 -57.7584,-6.1299 -86.41992,-3.1699 -29.9404,2.8101 -58.67862,9.8093 -88.91992,11.4492 27.35257,-15.61 49.16929,-34.9696 68.21679,-55.1894 7.32729,-7.0701 13.28626,-15.4204 24.8711,-19.9004 11.99075,-4.7 24.86974,-8.2902 37.76367,-11.7403 25.03559,-6.5298 50.67323,-12.0003 76.56643,-16.8203 32.3778,-5.9501 65.2219,-10.879 98.5176,-13.959 -13.9016,-0.03 -27.5783,1.9085 -41.2696,3.2286 -38.3357,4.25 -76.20705,10.2703 -113.36912,17.8203 -23.06462,4.9401 -46.41413,9.8499 -67.50781,17.9199 3.98689,-10.86 6.8299,-22.1086 5.16016,-33.3086 -1.3091,-11.62 -8.21409,-23.1013 -20.91211,-31.2812 -8.60599,-5.3599 -19.16891,-9.1898 -30.34766,-11.5899 -7.08669,-1.4601 -14.33804,-3.0293 -21.8457,-2.6894 13.90196,1.31 27.36779,4.8908 38.89258,10.2207 13.04468,6.0498 22.509,15.3697 25.68359,25.7597 5.07045,16.09 -0.63275,32.7691 -9.55469,47.7891 -2.90406,6.9301 -10.48619,12.1904 -16.60937,17.9004 -16.56502,14.74 -34.31871,29.0394 -55.2168,41.1894 -9.91463,5.8199 -21.12386,10.5407 -31.23437,16.2207 -74.41467,1.3201 -148.54491,-6.4698 -220.79302,-17.8398 10.3511,-5.49 21.0944,-10.6499 32.2129,-15.4199 9.67414,-4.3301 20.26586,-7.6604 29.95512,-11.9805 21.27422,-9.0601 41.08911,-20.5109 53.4414,-35.3809 6.64993,-8.3 10.66708,-17.5297 11.4043,-26.9296 1.24893,-14.8999 -5.13105,-29.5103 -13.24024,-43.2403 -7.32697,-12.5 -16.65499,-24.5897 -21.43945,-37.6797 -3.4454,-10.02 7.41662,-18.7489 17.67774,-25.1289 31.26437,14.02 65.14824,25.9099 101.64843,32.5899 25.90823,4.65 53.69691,6.449 79.95117,2.039 24.70459,-4.4501 48.3409,-12.5291 66.21485,-24.8691 8.56115,-5.8499 15.67777,-12.5203 22.92969,-19.0703 4.84461,6.24 11.32807,11.9303 19.28711,16.5703 19.12276,11.39 45.88912,15.3488 71,14.0488 15.3012,-0.45 30.1971,-4.5186 41.6016,-11.3086 22.0263,-13.37 34.5293,-32.22984 57.3984,-45.08984 23.0797,-13.67 54.856,-18.6613 85.1426,-18.2813 -24.1329,-1.17 -49.2295,1.1996 -70.6992,8.9395 -17.8139,6.22 -31.9414,16.0812 -44.1582,26.53124 -12.2017,10.08 -23.3063,21.3603 -40.2325,28.2403 -17.6331,7.14 -39.6589,6.4802 -59.09763,3.5703 -23.8921,-3.6001 -44.15809,-15.6619 -52.26757,-31.0117 12.9392,-12.39004 28.51053,-23.74014 47.54296,-32.08014 10.47159,-4.47 19.99495,-9.8696 28.58594,-15.8496 16.9862,-11.59 30.2871,-25.4504 48.793,-36.0703 15.7826,-9.3 35.9273,-14.9583 56.7051,-16.9883 22.0715,-2.51 44.4449,-0.9114 66.5918,-0.1113 -23.486,-1.9398 -47.4084,-3.4493 -70.9395,-1.0293 -22.0416,1.9999 -42.969,8.4891 -59.5039,18.3691 -24.3587,14.65 -42.0677,34.0401 -70.29298,45.8301 -15.58689,6.25 -29.80473,14.0294 -41.72071,23.1894 -13.79724,10.29 -24.65937,22.14094 -38.53125,32.38094 -17.64828,13.31 -42.35297,21.7593 -68.0957,25.7793 -21.53,3.2 -44.02409,1.5609 -65.13281,-2.1992 -28.54117,-5.15 -55.30721,-13.9709 -80.26758,-24.3809 -6.0332,-2.55 -11.96115,-5.1785 -17.73828,-7.9785 18.95722,-9.6199 38.93747,-18.46084 56.07422,-29.55084 14.32323,-9.15 26.4499,-20.3002 31.79101,-33.1601 3.52078,-8.4999 8.00514,-16.809 13.06055,-24.959 2.07612,-3.4199 5.59655,-6.3505 7.53711,-9.8106 4.36334,-8.8199 12.00729,-16.6809 19.0332,-24.6308 14.71443,-15.8 32.07742,-30.5493 52.23828,-43.4493 28.40577,-18.6498 62.98044,-33.3602 100.95508,-41.7402 3.18703,-0.8793 7.61747,-0.9412 9.18555,-3.3457 z" />
      <path
         id="path19-6"
         style="stroke-width:1"
         d="m 1853.3288,1374.6179 c -7.0864,1.41 -14.037,3.1097 -21.1231,4.5097 5.2056,8.3 10.668,16.5301 15.9493,24.8301 -12.6233,2.6 -25.1114,5.4699 -37.6289,8.2598 3.8668,4.8 7.6276,9.6494 11.539,14.4394 11.2996,-3.2 22.5073,-6.5399 33.8516,-9.6699 6.0638,9.0701 12.3532,18.0799 18.3711,27.1699 11.0435,16.07 21.9069,32.2003 33.0254,48.25 -4.4383,4.1899 -7.914,8.8707 -9.2227,13.9707 -0.1355,4.16 0.4498,8.3993 2.9024,12.2793 6.3488,10.91 19.6201,19.5011 24.4648,30.8711 3.0539,10.02 2.7982,20.4405 0.3008,30.4805 -5.2208,5.48 -11.3448,10.5889 -16.4903,16.1289 -27.563,29.09 -53.6062,59.3499 -90.0312,84.0899 -7.3571,5.5798 -18.718,7.3515 -28.8887,9.6015 -3.9571,-2.16 -5.1453,-5.5701 -5.9726,-8.75 -3.8518,-15.63 -3.1889,-32.0116 -11.9903,-46.9316 -3.8969,-6.77 -16.2952,-7.5595 -25.6836,-7.4297 -14.804,0.51 -30.6767,2.5905 -42.2617,9.1504 -7.7335,4.3401 -6.244,11.719 -6.1387,17.709 2.5877,15.0097 7.8832,29.7617 14.2325,44.2617 -9.6746,4.2 -19.1378,8.6697 -29.0528,12.5898 -30.3614,-0.89 -60.4082,-4.5511 -90.2734,-8.1211 0.9778,-6.72 0.092,-13.4799 -0.9316,-20.1699 -1.4288,-7.99 -6.6064,-16.2298 -17.0782,-20.7598 2.4225,-9.1696 5.4922,-18.2606 8.17,-27.3906 9.3281,-31.14 18.883,-62.2394 28.166,-93.3691 17.6484,6.39 35.0712,13.0497 52.7343,19.4297 2.1818,-7.11 4.4993,-14.1989 6.6504,-21.2989 -15.0297,-5.4299 -30.0155,-10.8912 -45.0761,-16.2812 -2.2413,-0.84 -4.4545,-1.6587 -6.6661,-2.4688 3.8518,-13.7197 7.4935,-27.4621 11.3301,-41.1718 -7.6734,-3.04 -15.317,-6.0894 -22.9902,-9.1094 -4.4082,13.97 -8.7109,27.9504 -13.1797,41.9101 -20.7025,-7.4396 -41.3151,-14.9701 -62.0176,-22.4101 -0.6619,8.77 -0.2703,17.5701 -1.2636,26.3301 18.1446,6.0599 36.1989,12.2509 54.5996,17.9609 -0.7671,3.77 -2.1354,7.4692 -3.3243,11.1992 -9.9445,33.35 -20.1459,66.6703 -30.3769,99.9903 -1.279,4.0699 -2.1814,8.2007 -3.8516,12.2207 -6.9959,0.84 -14.2026,1.8291 -19.875,4.8691 -13.7818,6.83 -20.4323,18.0394 -23.8925,28.8691 -35.3568,-4.4401 -70.9849,-8.41 -106.9883,-9.5 -9.8548,-0.12 -19.7092,-0.138 -29.5489,0.021 -3.7015,0.09 -7.3882,0.2489 -11.0742,0.3789 -11.6151,-23.6097 -17.1821,-48.3104 -21.6054,-72.9004 12.4573,-0.71 24.8852,-1.77 37.373,-2.33 2.8735,-0.26 5.792,-0.4892 8.7109,-0.6993 -2.7835,-7.5496 -5.597,-15.0991 -8.5156,-22.6191 -16.0234,1.02 -31.9565,2.5196 -47.9648,3.5996 -4.7994,-10.09 -9.4182,-20.2201 -14.1426,-30.3301 -9.0721,0.03 -18.1438,0.01 -27.2012,0.02 4.5437,11.27 9.4626,22.4895 14.0215,33.7695 -16.9111,1.5299 -33.8229,2.9613 -50.7187,4.5312 3.7614,6.0901 7.4924,12.1886 11.4492,18.2286 16.7305,-0.91 33.448,-1.8593 50.1933,-2.6192 3.1597,8.5699 6.2288,17.1596 9.1778,25.7696 5.7475,15.9497 11.4487,31.9206 17.0605,47.9003 -24.509,3.51 -47.002,11.6205 -66.1699,22.2305 -8.4962,4.6311 -11.6135,8.6853 -19.7266,13.6035 -41.4224,91.8169 -169.2069,82.1164 -332.44911,82.1485 -128.3323,-5e-4 -223.29325,2.6083 -322.42969,-29.5743 -11.36806,-1.7913 -31.75993,-1.8657 -43.15234,-0.3886 -12.21673,1.4301 -23.87766,4.4001 -36.06445,5.9101 -17.43762,2.26 -35.08531,3.7303 -52.76367,4.9102 l -108.71875,5.2324 c -113.59283,3.97 -227.36776,8.7144 -341.095987,9.3744 l 2.88e-4,134.7058 H 2218.7077 v -418.2676 c -38.465,-9.4649 -79.8757,-5.4841 -117.4141,-3.9941 -9.8397,0.61 -19.6492,1.3504 -29.3535,2.5605 -9.1624,-8.12 -18.3411,-16.2111 -27.3984,-24.3711 6.68,-4.8301 13.6469,-9.4997 20.5527,-14.1797 -3.1146,-3.39 -6.3195,-6.73 -9.6445,-10 -7.6433,4.9 -15.0005,9.98 -22.5684,14.92 -7.5828,-5.74 -15.0157,-11.5505 -22.6738,-17.2305 -3.581,3.77 -7.3112,7.5005 -10.832,11.3105 -0.5565,0.5699 -1.0989,1.1691 -1.5801,1.7891 6.6199,3.89 13.0748,7.9112 19.6348,11.8613 -8.5157,5.21 -16.8964,10.499 -25.4122,15.709 4.9199,3.04 9.5695,6.2911 14.7149,9.2012 7.9437,-5.27 15.9629,-10.5101 24.2226,-15.5801 7.4323,6.4401 14.5487,13.0302 21.9512,19.4902 -20.8229,4.14 -40.6231,10.45 -58.4219,18.75 -6.3037,-1.12 -13.1489,-1.6497 -18.5507,-4.2597 -4.438,-2.62 -6.7853,-6.3618 -9.2676,-9.8418 -6.861,-10.25 -12.2175,-20.9794 -21.0039,-30.6094 -2.663,-2.09 -5.3854,-4.2996 -9.2071,-5.4297 -4.6189,-1.46 -10.7113,-2.9705 -14.8789,-0.1504 -14.0974,-24.17 -29.2042,-48.0804 -43.6328,-72.1601 10.9833,-3.1801 21.8762,-6.4996 32.8594,-9.6797 -2.1212,-4.15 -4.4533,-8.2496 -6.7402,-12.3496 -12.1263,2.92 -24.4487,5.4888 -36.6504,8.2988 -4.6489,-7.75 -9.405,-15.4692 -14.084,-23.1992 z"
         sodipodi:nodetypes="ccccccccccccccccccccccccccccccccccccccccccccccccccccccccccccccccccccccccccccccccccccccccccccccc" />
    </g>
    <rect
       style="fill:#060100;stroke-width:3.77953;stroke-linecap:square;fill-opacity:1"
       id="rect30"
       width="7.1645532"
       height="134.70583"
       x="1.9804474"
       y="1797.3242" />
  </g>
</svg>
